<svg xmlns="http://www.w3.org/2000/svg" viewBox="0 0 800 560" role="img" aria-labelledby="t d"><title id="t">Minyak cengkeh</title><desc id="d">Ilustrasi botol minyak cengkeh dengan daun hijau.</desc><defs><linearGradient id="bg" x1="0" x2="1"><stop stop-color="#e8f1e8"/><stop offset="1" stop-color="#f4e8c9"/></linearGradient><linearGradient id="glass" x1="0" y1="0" x2="1" y2="1"><stop stop-color="#a97335"/><stop offset=".45" stop-color="#5d331d"/><stop offset="1" stop-color="#2e1b13"/></linearGradient></defs><rect width="800" height="560" rx="40" fill="url(#bg)"/><path d="M185 410c25-140 130-230 245-170-50 40-84 98-95 170z" fill="#2f6b4f"/><path d="M610 420c-40-125-130-190-230-125 55 26 105 75 128 125z" fill="#4a8053"/><rect x="316" y="145" width="170" height="285" rx="45" fill="url(#glass)"/><rect x="338" y="95" width="126" height="90" rx="18" fill="#1e201d"/><rect x="347" y="240" width="108" height="100" rx="12" fill="#e8d39d"/><path d="M401 264c30 24 30 52 0 72-30-20-30-48 0-72z" fill="#2f6b4f"/><circle cx="401" cy="300" r="8" fill="#b58f49"/></svg>
