<svg xmlns="http://www.w3.org/2000/svg" viewBox="0 0 800 520"><rect width="800" height="520" rx="36" fill="#eaf1e8"/><circle cx="630" cy="110" r="62" fill="#d2a74b"/><path d="M0 340c140-120 260-100 400 0 120-100 255-110 400 0v180H0z" fill="#4e8055"/><path d="M0 400c150-100 270-80 400 0 120-85 250-90 400 0v120H0z" fill="#285e47"/><path d="M180 360V190m0 30l-70-80m70 95l75-95m-75 125l-90-55m90 50l100-70" stroke="#5b351f" stroke-width="24" stroke-linecap="round"/><g fill="#32704e"><ellipse cx="110" cy="140" rx="55" ry="28" transform="rotate(35 110 140)"/><ellipse cx="255" cy="145" rx="58" ry="30" transform="rotate(-35 255 145)"/><ellipse cx="88" cy="210" rx="55" ry="28" transform="rotate(20 88 210)"/><ellipse cx="280" cy="205" rx="55" ry="28" transform="rotate(-22 280 205)"/></g></svg>
